<svg version="1.1" xmlns="http://www.w3.org/2000/svg" viewBox="0 0 1169.5660202008157 767.8688553900572" width="1169.5660202008157" height="767.8688553900572">
  <!-- svg-source:excalidraw -->
  
  <defs>
    <style class="style-fonts">
      @font-face {
        font-family: "Virgil";
        src: url("https://excalidraw.com/Virgil.woff2");
      }
      @font-face {
        font-family: "Cascadia";
        src: url("https://excalidraw.com/Cascadia.woff2");
      }
      @font-face {
        font-family: "Assistant";
        src: url("https://excalidraw.com/Assistant-Regular.woff2");
      }
    </style>
    
  </defs>
  <rect x="0" y="0" width="1169.5660202008157" height="767.8688553900572" fill="#ffffff"></rect><g stroke-linecap="round"><g transform="translate(796.4194290142924 489.2022294134947) rotate(0 141.00003051757812 25.333328247070312)"><path d="M-0.35 -0.39 C39.7 6.46, 193.43 32.72, 240.43 41.07 C287.42 49.41, 274.89 48.25, 281.63 49.68 M1.66 -1.64 C42.08 5.39, 196.16 33.78, 242.66 42.47 C289.17 51.16, 274.37 49.2, 280.67 50.48" stroke="#1e1e1e" stroke-width="2" fill="none"></path></g><g transform="translate(796.4194290142924 489.2022294134947) rotate(0 141.00003051757812 25.333328247070312)"><path d="M259.85 51.74 C265.64 49.9, 272.3 50.4, 280.67 50.48 M259.85 51.74 C264.17 50.93, 268.25 52.12, 280.67 50.48" stroke="#1e1e1e" stroke-width="2" fill="none"></path></g><g transform="translate(796.4194290142924 489.2022294134947) rotate(0 141.00003051757812 25.333328247070312)"><path d="M263.91 38.06 C268.44 40.44, 273.84 45.18, 280.67 50.48 M263.91 38.06 C267.22 40.19, 270.42 44.37, 280.67 50.48" stroke="#1e1e1e" stroke-width="2" fill="none"></path></g></g><mask></mask><g stroke-linecap="round" transform="translate(161.41936797913615 62.93867215723117) rotate(0 418.3333435058594 347.465091616413)"><path d="M32 0 C331.5 1.5, 630.12 0.81, 804.67 0 M32 0 C226.58 2.39, 421.94 2.5, 804.67 0 M804.67 0 C827.59 -0.64, 837.32 8.94, 836.67 32 M804.67 0 C827.9 -1.16, 838.76 10.55, 836.67 32 M836.67 32 C835.96 249.62, 836.8 469.19, 836.67 662.93 M836.67 32 C835.68 175.75, 835.52 318.55, 836.67 662.93 M836.67 662.93 C837.06 682.66, 824.71 695.03, 804.67 694.93 M836.67 662.93 C838.35 683.43, 827.69 694.5, 804.67 694.93 M804.67 694.93 C619.4 696.28, 434.73 695.91, 32 694.93 M804.67 694.93 C619.16 697.27, 433.99 697.59, 32 694.93 M32 694.93 C11.92 695.19, 1.81 682.64, 0 662.93 M32 694.93 C11.51 696.27, 0.01 685.48, 0 662.93 M0 662.93 C-2.11 487.21, -1.18 312.67, 0 32 M0 662.93 C2.81 428.05, 2.75 192.97, 0 32 M0 32 C0.44 10.19, 10.76 1.44, 32 0 M0 32 C-1.5 9, 9.46 1.69, 32 0" stroke="#1e1e1e" stroke-width="2" fill="none"></path></g><g stroke-linecap="round" transform="translate(176.0000000000001 96.98037178570722) rotate(0 399 43.945833214685024)"><path d="M21.97 0 C222.5 2.55, 423.7 2.35, 776.03 0 M21.97 0 C187.82 -2.73, 353.88 -2.67, 776.03 0 M776.03 0 C792.6 1.14, 798.65 8.47, 798 21.97 M776.03 0 C792.83 1.07, 797.81 8.19, 798 21.97 M798 21.97 C798.08 37.69, 800.06 55.48, 798 65.92 M798 21.97 C798.32 34.87, 797.06 46.76, 798 65.92 M798 65.92 C798.15 81.92, 789.7 87.87, 776.03 87.89 M798 65.92 C799.28 78.51, 791.69 88.66, 776.03 87.89 M776.03 87.89 C621.91 89.77, 467.73 88.58, 21.97 87.89 M776.03 87.89 C511.23 85.73, 245.91 85.57, 21.97 87.89 M21.97 87.89 C9.03 86.45, 1.29 79.44, 0 65.92 M21.97 87.89 C5.73 85.99, 2.12 79.99, 0 65.92 M0 65.92 C-0.22 53.59, -0.62 45.58, 0 21.97 M0 65.92 C0.49 53.34, -0.97 40.9, 0 21.97 M0 21.97 C-1.46 7.36, 7.91 1.79, 21.97 0 M0 21.97 C-1.67 8.61, 9.29 -2.26, 21.97 0" stroke="#1e1e1e" stroke-width="2" fill="none"></path></g><g stroke-linecap="round" transform="translate(589.9361094025247 125.6886708151261) rotate(0 175.66665649414062 24.666671752929688)"><path d="M12.33 0 C99.23 -0.47, 185.62 1.4, 339 0 M12.33 0 C122.38 1.72, 232.42 1.82, 339 0 M339 0 C349.19 1.25, 353.21 4.82, 351.33 12.33 M339 0 C349.08 -0.75, 351.28 3.1, 351.33 12.33 M351.33 12.33 C351.13 17.78, 351.85 25.98, 351.33 37 M351.33 12.33 C350.15 20.69, 351.65 26.98, 351.33 37 M351.33 37 C352.04 46.04, 349.14 50.28, 339 49.33 M351.33 37 C351.25 44.34, 348.87 50.84, 339 49.33 M339 49.33 C249.91 48.01, 158.94 47.63, 12.33 49.33 M339 49.33 C249.48 51.09, 159.97 50.57, 12.33 49.33 M12.33 49.33 C2.28 48.92, 0.91 43.49, 0 37 M12.33 49.33 C6.18 49.6, -1.24 43.3, 0 37 M0 37 C1.08 28.12, 0.24 19.36, 0 12.33 M0 37 C-0.41 31.58, 0.5 26.28, 0 12.33 M0 12.33 C1.62 3.82, 5.6 0.28, 12.33 0 M0 12.33 C1.25 4.79, 3.28 -1.99, 12.33 0" stroke="#1e1e1e" stroke-width="2" fill="none"></path></g><g stroke-linecap="round" transform="translate(215.5054840051472 132.69981010501363) rotate(0 25.333343505859375 21.333335876464844)"><path d="M18.62 0.56 C23.6 -0.86, 30.64 0.16, 35.65 2.13 C40.66 4.1, 46.38 8.23, 48.66 12.39 C50.93 16.55, 50.54 22.85, 49.3 27.09 C48.06 31.33, 45.28 35.31, 41.19 37.83 C37.1 40.35, 30.19 42.42, 24.78 42.21 C19.38 42, 12.75 39.61, 8.76 36.56 C4.76 33.51, 1.66 28.55, 0.84 23.88 C0.01 19.22, 0.5 12.54, 3.81 8.58 C7.12 4.63, 17.57 1.37, 20.71 0.17 C23.85 -1.03, 22.54 0.86, 22.65 1.39 M22.96 -0.46 C27.86 -1.36, 35.12 0.16, 39.5 3.08 C43.89 6.01, 47.99 12.63, 49.27 17.11 C50.55 21.59, 49.48 25.87, 47.18 29.96 C44.89 34.06, 40.46 39.86, 35.51 41.67 C30.57 43.47, 22.56 42.25, 17.54 40.78 C12.52 39.31, 8.09 36.25, 5.38 32.84 C2.68 29.43, 0.84 24.8, 1.3 20.32 C1.75 15.85, 4.6 9.46, 8.1 5.97 C11.59 2.48, 19.7 0.24, 22.29 -0.6 C24.87 -1.43, 23.4 0.57, 23.59 0.95" stroke="#1e1e1e" stroke-width="2" fill="none"></path></g><g stroke-linecap="round" transform="translate(187.33322931946407 231.7080347706293) rotate(0 394.00001525878906 183.56658942353502)"><path d="M32 0 C230.13 2.23, 428.57 2.36, 756 0 M32 0 C310.69 -1.01, 590.03 -1.1, 756 0 M756 0 C777.12 -1.52, 786.96 9.79, 788 32 M756 0 C777.51 2.1, 786.43 11.31, 788 32 M788 32 C786.58 107.27, 787.63 183.25, 788 335.13 M788 32 C786.97 127.2, 787.13 221.99, 788 335.13 M788 335.13 C788.05 354.89, 778.57 367.19, 756 367.13 M788 335.13 C788.71 356.02, 776.51 364.98, 756 367.13 M756 367.13 C525.74 367.96, 296.19 367.88, 32 367.13 M756 367.13 C604.56 366.94, 453.58 366.67, 32 367.13 M32 367.13 C10.88 367.99, 0.6 355.97, 0 335.13 M32 367.13 C10.15 365.65, 1.81 358.76, 0 335.13 M0 335.13 C0.44 245.99, -1.27 157.01, 0 32 M0 335.13 C1.1 256.37, 0.96 177.8, 0 32 M0 32 C-1.74 12.14, 11.87 -1.33, 32 0 M0 32 C-1.79 12.55, 12.4 2.11, 32 0" stroke="#1e1e1e" stroke-width="2" fill="none"></path></g><g stroke-linecap="round" transform="translate(261.7667693411137 267.98579601344636) rotate(0 190.66665649414062 10)"><path d="M5 0 C95.73 -1.52, 186.56 -2.37, 376.33 0 M5 0 C124.21 -1.39, 242.12 -2.07, 376.33 0 M376.33 0 C378.18 0.35, 380.02 3.44, 381.33 5 M376.33 0 C381.95 -2.02, 382.93 0.19, 381.33 5 M381.33 5 C380.77 6.56, 381.47 9.88, 381.33 15 M381.33 5 C381.17 7.93, 381.64 9.68, 381.33 15 M381.33 15 C382.72 19.06, 379.92 20.11, 376.33 20 M381.33 15 C381.36 19.61, 378.87 21.89, 376.33 20 M376.33 20 C298.76 21.51, 224.13 21.24, 5 20 M376.33 20 C276.49 21.38, 175.15 21.02, 5 20 M5 20 C3.54 20.18, -0.49 19.35, 0 15 M5 20 C2.59 20.7, -0.69 17.68, 0 15 M0 15 C0.52 11.16, 0.68 8.25, 0 5 M0 15 C0.55 12.61, -0.27 10.54, 0 5 M0 5 C-1.38 2.31, 0.34 -1.3, 5 0 M0 5 C-0.12 -0.15, -0.13 -1.86, 5 0" stroke="#1e1e1e" stroke-width="2" fill="none"></path></g><g stroke-linecap="round" transform="translate(707.5277625849225 271.8135679033827) rotate(0 30.333343505859375 6.6666717529296875)"><path d="M3.33 0 C20.32 -0.28, 36.87 -0.71, 57.33 0 M3.33 0 C19.83 0.07, 36.91 0.28, 57.33 0 M57.33 0 C60.48 0.22, 61.2 1.49, 60.67 3.33 M57.33 0 C58.93 -0.14, 59.97 2.14, 60.67 3.33 M60.67 3.33 C60.37 5.3, 60.67 7.88, 60.67 10 M60.67 3.33 C60.73 4.99, 60.72 6.86, 60.67 10 M60.67 10 C61.64 12.61, 60 13.4, 57.33 13.33 M60.67 10 C60.25 11.22, 58.49 13.18, 57.33 13.33 M57.33 13.33 C46.82 12.56, 36.37 14.1, 3.33 13.33 M57.33 13.33 C41.53 13.73, 24.38 13.7, 3.33 13.33 M3.33 13.33 C1.45 14.29, -0.41 13.22, 0 10 M3.33 13.33 C-0.01 12.61, -0.24 11.34, 0 10 M0 10 C-0.18 8.47, -0.03 7.49, 0 3.33 M0 10 C0.02 8.13, -0.12 5.82, 0 3.33 M0 3.33 C-0.25 1.19, 1.54 -0.08, 3.33 0 M0 3.33 C0.48 2.12, 1.4 0.74, 3.33 0" stroke="#1e1e1e" stroke-width="2" fill="none"></path></g><g stroke-linecap="round" transform="translate(210.40820211362905 349.7884888857312) rotate(0 374.0000457763673 109.33332824707031)"><path d="M32 0 C298.64 2.42, 566.01 2.3, 716 0 M32 0 C265.8 -0.74, 499.45 -0.81, 716 0 M716 0 C738.65 1.11, 749.89 12.23, 748 32 M716 0 C737.49 0.6, 748.42 9.38, 748 32 M748 32 C748.3 88.63, 746.29 147.88, 748 186.67 M748 32 C747.49 67.75, 749.03 105.18, 748 186.67 M748 186.67 C749.06 209.79, 736.28 217.25, 716 218.67 M748 186.67 C747.3 209.27, 738.31 217.17, 716 218.67 M716 218.67 C488.09 220.84, 260.99 220.82, 32 218.67 M716 218.67 C511.78 217.65, 307.51 217.33, 32 218.67 M32 218.67 C11.44 219.19, 1.75 208.71, 0 186.67 M32 218.67 C11.42 217.4, -0.62 206.27, 0 186.67 M0 186.67 C0.79 130.67, -1.08 74.31, 0 32 M0 186.67 C1.08 140.53, 0.23 94.95, 0 32 M0 32 C0.32 10.44, 8.92 -1.84, 32 0 M0 32 C1.98 9.63, 10.34 -0.47, 32 0" stroke="#1e1e1e" stroke-width="2" fill="none"></path></g><g stroke-linecap="round" transform="translate(198.08608550843303 655.1606173957946) rotate(0 389.3333282470703 41.354149514709434)"><path d="M20.68 0 C289.38 -0.51, 557.37 -0.21, 757.99 0 M20.68 0 C211.83 2.4, 402.94 2.33, 757.99 0 M757.99 0 C772.53 -1.72, 780.43 6.33, 778.67 20.68 M757.99 0 C773.65 -1.8, 778.93 7.42, 778.67 20.68 M778.67 20.68 C778.16 28.87, 778.17 36.86, 778.67 62.03 M778.67 20.68 C778.1 31.64, 779.68 41.6, 778.67 62.03 M778.67 62.03 C778.22 75.44, 773.45 82.7, 757.99 82.71 M778.67 62.03 C776.84 77.17, 772.33 82.83, 757.99 82.71 M757.99 82.71 C544.99 82.81, 331.67 83.61, 20.68 82.71 M757.99 82.71 C463.89 80.32, 170.83 80.6, 20.68 82.71 M20.68 82.71 C7.63 81.05, -1.63 77.04, 0 62.03 M20.68 82.71 C8.12 83.54, -0.15 74.75, 0 62.03 M0 62.03 C-1.38 45.91, -1.77 31.9, 0 20.68 M0 62.03 C-0.11 50.82, -1.02 38.71, 0 20.68 M0 20.68 C0.69 8.86, 5.95 -0.31, 20.68 0 M0 20.68 C1.69 9.02, 5.39 -0.55, 20.68 0" stroke="#1e1e1e" stroke-width="2" fill="none"></path></g><g stroke-linecap="round"><g transform="translate(173.60107139026292 191.8018737765808) rotate(0 -49.42416469384463 99.03350606552725)"><path d="M0.02 0.88 C-16.42 34.11, -82.98 165.68, -99.61 198.55 M-1.43 0.3 C-17.41 33.24, -81.32 163.49, -97.3 196.69" stroke="#1e1e1e" stroke-width="2" fill="none"></path></g><g transform="translate(173.60107139026292 191.8018737765808) rotate(0 -49.42416469384463 99.03350606552725)"><path d="M-94.71 171.82 C-93.98 176.04, -95.21 181.32, -97.3 196.69 M-94.71 171.82 C-95.58 179.5, -95.43 187, -97.3 196.69" stroke="#1e1e1e" stroke-width="2" fill="none"></path></g><g transform="translate(173.60107139026292 191.8018737765808) rotate(0 -49.42416469384463 99.03350606552725)"><path d="M-79.33 179.3 C-81.94 181.87, -86.56 185.5, -97.3 196.69 M-79.33 179.3 C-84.94 184.64, -89.53 189.84, -97.3 196.69" stroke="#1e1e1e" stroke-width="2" fill="none"></path></g></g><mask></mask><g transform="translate(63.419429014292405 385.86888590763533) rotate(0 44.669960021972656 37.5)"><text x="0" y="0" font-family="Virgil, Segoe UI Emoji" font-size="20px" fill="#1e1e1e" text-anchor="start" style="white-space: pre;" direction="ltr" dominant-baseline="text-before-edge">main</text><text x="0" y="25" font-family="Virgil, Segoe UI Emoji" font-size="20px" fill="#1e1e1e" text-anchor="start" style="white-space: pre;" direction="ltr" dominant-baseline="text-before-edge">body </text><text x="0" y="50" font-family="Virgil, Segoe UI Emoji" font-size="20px" fill="#1e1e1e" text-anchor="start" style="white-space: pre;" direction="ltr" dominant-baseline="text-before-edge">(id="app")</text></g><g stroke-linecap="round"><g transform="translate(243.67776920840868 164.65525294546347) rotate(0 -76.66667175292969 -7.666664123535156)"><path d="M0.76 0.94 C-24.76 -1.65, -127.94 -11.99, -153.77 -14.84 M-0.31 0.39 C-25.96 -2.63, -129.7 -14.09, -154.95 -16.7" stroke="#1e1e1e" stroke-width="2" fill="none"></path></g><g transform="translate(243.67776920840868 164.65525294546347) rotate(0 -76.66667175292969 -7.666664123535156)"><path d="M-130.68 -22.69 C-135.01 -21.81, -141.69 -21.14, -154.95 -16.7 M-130.68 -22.69 C-136.03 -21.09, -141.25 -19.98, -154.95 -16.7" stroke="#1e1e1e" stroke-width="2" fill="none"></path></g><g transform="translate(243.67776920840868 164.65525294546347) rotate(0 -76.66667175292969 -7.666664123535156)"><path d="M-132.51 -5.69 C-136.5 -8.97, -142.73 -12.46, -154.95 -16.7 M-132.51 -5.69 C-137.35 -8.03, -142.15 -10.86, -154.95 -16.7" stroke="#1e1e1e" stroke-width="2" fill="none"></path></g></g><mask></mask><g transform="translate(10 124.69975301181591) rotate(0 18.71997833251953 12.5)"><text x="0" y="0" font-family="Virgil, Segoe UI Emoji" font-size="20px" fill="#1e1e1e" text-anchor="start" style="white-space: pre;" direction="ltr" dominant-baseline="text-before-edge">logo</text></g><g stroke-linecap="round"><g transform="translate(887.7527420025737 334.53554240177596) rotate(0 86.66668701171875 -33)"><path d="M-0.16 0.93 C28.61 -10.01, 144.73 -54.38, 173.61 -65.61 M-1.7 0.37 C26.85 -10.94, 143.82 -56.57, 172.81 -67.53" stroke="#1e1e1e" stroke-width="2" fill="none"></path></g><g transform="translate(887.7527420025737 334.53554240177596) rotate(0 86.66668701171875 -33)"><path d="M153.96 -51.11 C162.67 -56.87, 168.95 -63.97, 172.81 -67.53 M153.96 -51.11 C159.82 -54.61, 163.13 -59.84, 172.81 -67.53" stroke="#1e1e1e" stroke-width="2" fill="none"></path></g><g transform="translate(887.7527420025737 334.53554240177596) rotate(0 86.66668701171875 -33)"><path d="M147.81 -67.06 C158.87 -66.75, 167.48 -67.78, 172.81 -67.53 M147.81 -67.06 C155.24 -66.33, 160.17 -67.36, 172.81 -67.53" stroke="#1e1e1e" stroke-width="2" fill="none"></path></g></g><mask></mask><g transform="translate(1051.7527420025735 280.53554240177596) rotate(0 47.08995819091797 12.5)"><text x="0" y="0" font-family="Virgil, Segoe UI Emoji" font-size="20px" fill="#1e1e1e" text-anchor="start" style="white-space: pre;" direction="ltr" dominant-baseline="text-before-edge">Nav- item</text></g><g stroke-linecap="round"><g transform="translate(768.4529889659251 111.3552967916886) rotate(0 -32.929723780634276 -36.04165582308809)"><path d="M-0.41 -0.64 C-11.15 -12.72, -53.79 -60.35, -64.76 -72.35 M1.58 1.64 C-9.19 -10.28, -53.68 -58.74, -65.12 -70.95" stroke="#1e1e1e" stroke-width="2" fill="none"></path></g><g transform="translate(768.4529889659251 111.3552967916886) rotate(0 -32.929723780634276 -36.04165582308809)"><path d="M-42.89 -59.52 C-50.02 -60.86, -55.44 -66.33, -65.12 -70.95 M-42.89 -59.52 C-47.87 -63.06, -54.01 -64.22, -65.12 -70.95" stroke="#1e1e1e" stroke-width="2" fill="none"></path></g><g transform="translate(768.4529889659251 111.3552967916886) rotate(0 -32.929723780634276 -36.04165582308809)"><path d="M-55.43 -47.9 C-59.17 -52.36, -61.17 -60.99, -65.12 -70.95 M-55.43 -47.9 C-57.11 -54.51, -60.06 -58.64, -65.12 -70.95" stroke="#1e1e1e" stroke-width="2" fill="none"></path></g></g><mask></mask><g transform="translate(667.7368290728388 10) rotate(0 33.10997009277344 12.5)"><text x="0" y="0" font-family="Virgil, Segoe UI Emoji" font-size="20px" fill="#1e1e1e" text-anchor="start" style="white-space: pre;" direction="ltr" dominant-baseline="text-before-edge">Header</text></g><g stroke-linecap="round"><g transform="translate(194.4082021136291 445.98455198028734) rotate(0 -32.661058302598036 33.942166963674)"><path d="M-0.91 0.35 C-11.92 11.54, -54.36 56.52, -65.16 67.81 M0.81 -0.5 C-10.41 10.81, -54.77 57.63, -66.03 69.3" stroke="#1e1e1e" stroke-width="2" fill="none"></path></g><g transform="translate(194.4082021136291 445.98455198028734) rotate(0 -32.661058302598036 33.942166963674)"><path d="M-55.98 46.41 C-58.99 55.1, -63.44 62.64, -66.03 69.3 M-55.98 46.41 C-58.61 54.2, -61.55 61.61, -66.03 69.3" stroke="#1e1e1e" stroke-width="2" fill="none"></path></g><g transform="translate(194.4082021136291 445.98455198028734) rotate(0 -32.661058302598036 33.942166963674)"><path d="M-43.62 58.22 C-51.28 62.43, -60.32 65.59, -66.03 69.3 M-43.62 58.22 C-50.16 62.17, -57.02 65.83, -66.03 69.3" stroke="#1e1e1e" stroke-width="2" fill="none"></path></g></g><mask></mask><g transform="translate(119.08608550843303 509.2022294134947) rotate(0 53.52996063232422 12.5)"><text x="0" y="0" font-family="Virgil, Segoe UI Emoji" font-size="20px" fill="#1e1e1e" text-anchor="start" style="white-space: pre;" direction="ltr" dominant-baseline="text-before-edge">Search bar</text></g><g stroke-linecap="round"><g transform="translate(762.0110821966899 278.3941123134708) rotate(0 19.66668701171875 -0.3333282470703125)"><path d="M0.18 0.26 C6.67 0.31, 32.68 -0.04, 39.21 -0.2 M-0.39 -0.08 C5.99 -0.13, 32.14 -0.92, 38.72 -0.92" stroke="#1e1e1e" stroke-width="2" fill="none"></path></g><g transform="translate(762.0110821966899 278.3941123134708) rotate(0 19.66668701171875 -0.3333282470703125)"><path d="M20.36 6.12 C27.37 3.37, 34.27 1.22, 38.72 -0.92 M20.36 6.12 C25.76 3.73, 31.58 2.19, 38.72 -0.92" stroke="#1e1e1e" stroke-width="2" fill="none"></path></g><g transform="translate(762.0110821966899 278.3941123134708) rotate(0 19.66668701171875 -0.3333282470703125)"><path d="M20.12 -7.33 C27.16 -5.3, 34.14 -2.68, 38.72 -0.92 M20.12 -7.33 C25.59 -5.74, 31.47 -3.29, 38.72 -0.92" stroke="#1e1e1e" stroke-width="2" fill="none"></path></g></g><mask></mask><g transform="translate(801.4527897907573 266.4163338000481) rotate(0 69.09993743896484 12.5)"><text x="0" y="0" font-family="Virgil, Segoe UI Emoji" font-size="20px" fill="#1e1e1e" text-anchor="start" style="white-space: pre;" direction="ltr" dominant-baseline="text-before-edge">search button</text></g><g stroke-linecap="round"><g transform="translate(939.7527420025737 449.86888590763533) rotate(0 46.66668701171875 8.666671752929688)"><path d="M-0.74 -0.74 C14.64 2.21, 76.57 13.87, 92.27 16.85 M1.08 1.49 C16.81 4.67, 79.14 15.33, 94.42 18.13" stroke="#1e1e1e" stroke-width="2" fill="none"></path></g><g transform="translate(939.7527420025737 449.86888590763533) rotate(0 46.66668701171875 8.666671752929688)"><path d="M69.8 22.46 C75.98 19.54, 83.78 20.21, 94.42 18.13 M69.8 22.46 C77.67 20.94, 83.85 20.41, 94.42 18.13" stroke="#1e1e1e" stroke-width="2" fill="none"></path></g><g transform="translate(939.7527420025737 449.86888590763533) rotate(0 46.66668701171875 8.666671752929688)"><path d="M72.78 5.62 C77.95 7.73, 84.86 13.45, 94.42 18.13 M72.78 5.62 C79.9 8.85, 85.24 13.07, 94.42 18.13" stroke="#1e1e1e" stroke-width="2" fill="none"></path></g></g><mask></mask><g transform="translate(1045.086116026011 460.53554240177596) rotate(0 57.239952087402344 37.5)"><text x="0" y="0" font-family="Virgil, Segoe UI Emoji" font-size="20px" fill="#1e1e1e" text-anchor="start" style="white-space: pre;" direction="ltr" dominant-baseline="text-before-edge">Restaurent</text><text x="0" y="25" font-family="Virgil, Segoe UI Emoji" font-size="20px" fill="#1e1e1e" text-anchor="start" style="white-space: pre;" direction="ltr" dominant-baseline="text-before-edge">Card Holder</text><text x="0" y="50" font-family="Virgil, Segoe UI Emoji" font-size="20px" fill="#1e1e1e" text-anchor="start" style="white-space: pre;" direction="ltr" dominant-baseline="text-before-edge"></text></g><g stroke-linecap="round"><g transform="translate(945.0861160260112 714.535542401776) rotate(0 62.419203543981894 -22.076240883708465)"><path d="M0.19 0.31 C21.1 -6.9, 104.21 -36.66, 124.94 -43.91 M-1.17 -0.58 C19.64 -8.12, 103.24 -38.49, 124.04 -45.9" stroke="#1e1e1e" stroke-width="2" fill="none"></path></g><g transform="translate(945.0861160260112 714.535542401776) rotate(0 62.419203543981894 -22.076240883708465)"><path d="M104.84 -29.89 C110.29 -33.81, 115.04 -38.52, 124.04 -45.9 M104.84 -29.89 C111.26 -36.86, 119.41 -41.44, 124.04 -45.9" stroke="#1e1e1e" stroke-width="2" fill="none"></path></g><g transform="translate(945.0861160260112 714.535542401776) rotate(0 62.419203543981894 -22.076240883708465)"><path d="M99.04 -45.98 C105.88 -45.84, 112.09 -46.47, 124.04 -45.9 M99.04 -45.98 C107.58 -46.92, 117.92 -45.41, 124.04 -45.9" stroke="#1e1e1e" stroke-width="2" fill="none"></path></g></g><mask></mask><g transform="translate(1042.4194900494485 643.8689164252135) rotate(0 32.239967346191406 12.5)"><text x="0" y="0" font-family="Virgil, Segoe UI Emoji" font-size="20px" fill="#1e1e1e" text-anchor="start" style="white-space: pre;" direction="ltr" dominant-baseline="text-before-edge">Footer</text></g><g transform="translate(293.08608550843303 707.2022294134947) rotate(0 90.50991821289062 12.5)"><text x="0" y="0" font-family="Virgil, Segoe UI Emoji" font-size="20px" fill="#1e1e1e" text-anchor="start" style="white-space: pre;" direction="ltr" dominant-baseline="text-before-edge">Copyright and links</text></g><g stroke-linecap="round" transform="translate(247.9889178033103 374.19674809255787) rotate(0 54 43)"><path d="M21.5 0 C42.5 1.73, 67.52 -0.66, 86.5 0 M21.5 0 C44.26 0.51, 65.85 -0.04, 86.5 0 M86.5 0 C100.15 0.63, 108.65 7.73, 108 21.5 M86.5 0 C103.12 -2.13, 107.25 8.93, 108 21.5 M108 21.5 C109.35 38.04, 107.57 49.71, 108 64.5 M108 21.5 C107.11 36, 107.78 51.52, 108 64.5 M108 64.5 C106.09 80.48, 100.61 85.33, 86.5 86 M108 64.5 C106.87 79.84, 102.14 84.54, 86.5 86 M86.5 86 C60.48 84.77, 33.56 87.03, 21.5 86 M86.5 86 C70.52 86.63, 52.23 85.75, 21.5 86 M21.5 86 C7.22 84.54, 0.35 80.6, 0 64.5 M21.5 86 C6.32 86.09, -1.31 80.87, 0 64.5 M0 64.5 C0.73 51.32, 0.63 37.08, 0 21.5 M0 64.5 C-0.27 52.18, 0.67 40.98, 0 21.5 M0 21.5 C-1.37 7.75, 8.72 -1.78, 21.5 0 M0 21.5 C-0.6 7.61, 7.94 0.89, 21.5 0" stroke="#1e1e1e" stroke-width="2" fill="none"></path></g><g stroke-linecap="round" transform="translate(417.73057760919403 366.88571368405167) rotate(0 52 46)"><path d="M23 0 C37.28 1.51, 54.44 -0.22, 81 0 M23 0 C42.23 1.15, 61.15 0.04, 81 0 M81 0 C95.23 -1.26, 102.66 9.3, 104 23 M81 0 C94.18 -0.29, 104.84 6.7, 104 23 M104 23 C102.48 40.59, 102.69 55.27, 104 69 M104 23 C103.53 35.36, 103.61 46.38, 104 69 M104 69 C103.09 83.51, 95.99 92.25, 81 92 M104 69 C103.65 82.39, 97.35 94.07, 81 92 M81 92 C63.47 93.07, 45.26 93.24, 23 92 M81 92 C62.89 92.87, 43.07 92.54, 23 92 M23 92 C7.9 92.37, 1.85 82.35, 0 69 M23 92 C5.99 92.15, -0.4 83.26, 0 69 M0 69 C1.47 53.44, -0.88 41.56, 0 23 M0 69 C1.12 56.04, 0.07 41.7, 0 23 M0 23 C0.87 7.72, 6.63 -0.68, 23 0 M0 23 C1.59 7, 8.34 0.21, 23 0" stroke="#1e1e1e" stroke-width="2" fill="none"></path></g><g stroke-linecap="round" transform="translate(567.3221776403524 378.36903329581924) rotate(0 62.666656494140625 45.33332824707031)"><path d="M22.67 0 C51.3 -0.63, 85.51 -1.51, 102.67 0 M22.67 0 C53.85 0.3, 85.77 0.1, 102.67 0 M102.67 0 C118.13 0.62, 125.12 9.53, 125.33 22.67 M102.67 0 C115.54 -0.17, 125.21 6.89, 125.33 22.67 M125.33 22.67 C126.74 33.22, 125.9 44.78, 125.33 68 M125.33 22.67 C125.75 40.07, 124.38 56.13, 125.33 68 M125.33 68 C124.92 85.06, 119.08 88.69, 102.67 90.67 M125.33 68 C124.14 83.71, 117.94 92.25, 102.67 90.67 M102.67 90.67 C79.42 90.67, 58.16 90.86, 22.67 90.67 M102.67 90.67 C81.76 90.44, 61.19 90.5, 22.67 90.67 M22.67 90.67 C6.98 91.03, -0.48 83.97, 0 68 M22.67 90.67 C8.38 88.55, 0.93 81.47, 0 68 M0 68 C-0.42 53.66, 0.49 37.4, 0 22.67 M0 68 C-1.26 56.11, -1.05 44.28, 0 22.67 M0 22.67 C1.24 6.01, 6.65 0.62, 22.67 0 M0 22.67 C-1.12 7.22, 5.83 2.21, 22.67 0" stroke="#1e1e1e" stroke-width="2" fill="none"></path></g><g stroke-linecap="round" transform="translate(732.7639383856589 385.4440060899842) rotate(0 75.33334350585938 41.66667175292969)"><path d="M20.83 0 C48.19 -1.47, 74.42 0.43, 129.83 0 M20.83 0 C45.12 -1.09, 69.53 0.3, 129.83 0 M129.83 0 C143.84 1.34, 149.65 5.96, 150.67 20.83 M129.83 0 C142.72 0.34, 149.56 8.95, 150.67 20.83 M150.67 20.83 C150.67 27.93, 149.79 39.29, 150.67 62.5 M150.67 20.83 C151.26 35.38, 149.9 50.46, 150.67 62.5 M150.67 62.5 C152.1 74.93, 144.11 83.86, 129.83 83.33 M150.67 62.5 C152.09 74.33, 145.27 83.22, 129.83 83.33 M129.83 83.33 C100.05 83.98, 73.63 85.94, 20.83 83.33 M129.83 83.33 C101.69 83.43, 74.43 82.7, 20.83 83.33 M20.83 83.33 C8.89 82.33, 1 77.33, 0 62.5 M20.83 83.33 C8.44 82.8, 0.56 76.81, 0 62.5 M0 62.5 C0.87 50.34, 1.4 37.32, 0 20.83 M0 62.5 C0.12 50.04, -0.07 36.81, 0 20.83 M0 20.83 C-0.07 5.28, 8.89 0.97, 20.83 0 M0 20.83 C1.21 8.3, 5.37 1.64, 20.83 0" stroke="#1e1e1e" stroke-width="2" fill="none"></path></g><g stroke-linecap="round" transform="translate(248.16108882017613 472.7773495958436) rotate(0 55.33332824707031 43.66667175292969)"><path d="M21.83 0 C41.74 1.97, 65.93 1.07, 88.83 0 M21.83 0 C45.83 -0.9, 70.29 -1.04, 88.83 0 M88.83 0 C104.04 -1.77, 112.57 7.29, 110.67 21.83 M88.83 0 C101.24 -1.96, 112.41 5.5, 110.67 21.83 M110.67 21.83 C111.34 33.06, 109.43 47.18, 110.67 65.5 M110.67 21.83 C110.66 36.94, 109.86 51.19, 110.67 65.5 M110.67 65.5 C110.04 78.39, 101.56 87.78, 88.83 87.33 M110.67 65.5 C112.83 80.09, 103.08 86.15, 88.83 87.33 M88.83 87.33 C74.29 87.08, 56.22 86.1, 21.83 87.33 M88.83 87.33 C73.86 86.21, 60.31 86.8, 21.83 87.33 M21.83 87.33 C5.46 86.16, -0.76 81.04, 0 65.5 M21.83 87.33 C7.18 88.85, 2.2 82.19, 0 65.5 M0 65.5 C-0.9 49.31, -1.87 35.17, 0 21.83 M0 65.5 C0.14 52.96, 0.12 40.79, 0 21.83 M0 21.83 C-1.65 6.57, 9.16 0.54, 21.83 0 M0 21.83 C0.37 9.15, 8.76 -2.01, 21.83 0" stroke="#1e1e1e" stroke-width="2" fill="none"></path></g><g stroke-linecap="round" transform="translate(418.9139450091451 479.4440060899842) rotate(0 49.666656494140625 40.333343505859375)"><path d="M20.17 0 C40.2 0.51, 60.15 0.92, 79.17 0 M20.17 0 C36.68 -0.13, 52.29 0.38, 79.17 0 M79.17 0 C91.99 -0.65, 100.4 7.85, 99.33 20.17 M79.17 0 C91.82 0.64, 98.33 5.06, 99.33 20.17 M99.33 20.17 C97.98 28.07, 100.72 37.8, 99.33 60.5 M99.33 20.17 C99.18 28.17, 99.27 36.51, 99.33 60.5 M99.33 60.5 C99.69 72.27, 93.84 82.21, 79.17 80.67 M99.33 60.5 C97.66 75.72, 92.73 78.42, 79.17 80.67 M79.17 80.67 C58.91 80.86, 39.81 78.91, 20.17 80.67 M79.17 80.67 C64.97 81.75, 51.46 81.59, 20.17 80.67 M20.17 80.67 C5.96 81.63, 1.65 74.99, 0 60.5 M20.17 80.67 C7.2 82.48, 1.79 74.63, 0 60.5 M0 60.5 C0 52.19, 0.17 44.11, 0 20.17 M0 60.5 C0.16 46.73, 0.62 33.32, 0 20.17 M0 20.17 C-1.85 7.82, 6.46 1.07, 20.17 0 M0 20.17 C1.61 5.38, 7.69 0.42, 20.17 0" stroke="#1e1e1e" stroke-width="2" fill="none"></path></g><g stroke-linecap="round" transform="translate(577.4944018084574 476.9495471883291) rotate(0 58 39)"><path d="M19.5 0 C49.73 0.45, 78.84 2.11, 96.5 0 M19.5 0 C38.81 0.77, 57.17 -0.33, 96.5 0 M96.5 0 C108.14 -1.52, 116.41 7.97, 116 19.5 M96.5 0 C110.92 -2.13, 114.27 4.79, 116 19.5 M116 19.5 C115.55 29.11, 117.09 37.4, 116 58.5 M116 19.5 C115.57 27.3, 117.01 36.9, 116 58.5 M116 58.5 C114.65 71.05, 109.08 79.47, 96.5 78 M116 58.5 C116.37 69.77, 110.91 75.97, 96.5 78 M96.5 78 C71.44 76.83, 48.15 76.58, 19.5 78 M96.5 78 C73.67 77.03, 49.77 77.6, 19.5 78 M19.5 78 C5.54 76.5, -0.64 72.12, 0 58.5 M19.5 78 C6.89 78.83, -1.47 73.32, 0 58.5 M0 58.5 C-1.86 47.91, -2.27 36.64, 0 19.5 M0 58.5 C0.29 47.06, -0.13 35.55, 0 19.5 M0 19.5 C-0.01 5.51, 8.4 -1.48, 19.5 0 M0 19.5 C-0.95 5.94, 7.01 -0.56, 19.5 0" stroke="#1e1e1e" stroke-width="2" fill="none"></path></g><g stroke-linecap="round" transform="translate(738.7000477881837 480.94960428152683) rotate(0 70.66665649414062 37.66668701171875)"><path d="M18.83 0 C46.71 1.65, 73.49 1.79, 122.5 0 M18.83 0 C45.18 0.53, 72.49 0.29, 122.5 0 M122.5 0 C134.23 -0.49, 141.78 5.79, 141.33 18.83 M122.5 0 C133.35 0.76, 142.8 8.34, 141.33 18.83 M141.33 18.83 C142.57 32.17, 142.45 45.92, 141.33 56.5 M141.33 18.83 C141.83 27.46, 140.6 35.09, 141.33 56.5 M141.33 56.5 C140.98 70.95, 133.77 75.72, 122.5 75.33 M141.33 56.5 C141.24 69.78, 134.01 76.65, 122.5 75.33 M122.5 75.33 C97.95 76.34, 78.16 74.55, 18.83 75.33 M122.5 75.33 C94.58 73.95, 66.69 74.32, 18.83 75.33 M18.83 75.33 C7.13 76.25, -1.94 70.71, 0 56.5 M18.83 75.33 C5.29 74.07, -0.83 67.2, 0 56.5 M0 56.5 C1.65 46.03, 1.74 31.58, 0 18.83 M0 56.5 C-0.02 46.57, 0.09 38.35, 0 18.83 M0 18.83 C-0.59 5.62, 4.77 -0.44, 18.83 0 M0 18.83 C-0.71 4.38, 4.08 -2.02, 18.83 0" stroke="#1e1e1e" stroke-width="2" fill="none"></path></g><g transform="translate(1090.4194900494485 542.535542401776) rotate(0 28.52997589111328 12.5)"><text x="0" y="0" font-family="Virgil, Segoe UI Emoji" font-size="20px" fill="#1e1e1e" text-anchor="start" style="white-space: pre;" direction="ltr" dominant-baseline="text-before-edge">Cards</text></g></svg>